<svg width="47" height="48" viewBox="0 0 47 48" fill="none" xmlns="http://www.w3.org/2000/svg">
<path d="M23.5 4.59758C12.6841 4.59758 3.91667 13.365 3.91667 24.1809C3.91667 34.9968 12.6841 43.7642 23.5 43.7642C34.3159 43.7642 43.0833 34.9968 43.0833 24.1809C43.0833 13.365 34.3159 4.59758 23.5 4.59758Z" stroke="#374686" stroke-width="1.5" stroke-linecap="round" stroke-linejoin="round"/>
<path d="M8.36404 36.6085C8.36404 36.6085 12.7292 31.0351 23.5 31.0351C34.2708 31.0351 38.6379 36.6085 38.6379 36.6085M23.5 24.1809C25.0581 24.1809 26.5525 23.5619 27.6543 22.4602C28.756 21.3584 29.375 19.8641 29.375 18.3059C29.375 16.7478 28.756 15.2534 27.6543 14.1517C26.5525 13.0499 25.0581 12.4309 23.5 12.4309C21.9419 12.4309 20.4475 13.0499 19.3457 14.1517C18.244 15.2534 17.625 16.7478 17.625 18.3059C17.625 19.8641 18.244 21.3584 19.3457 22.4602C20.4475 23.5619 21.9419 24.1809 23.5 24.1809Z" stroke="#374686" stroke-width="1.5" stroke-linecap="round" stroke-linejoin="round"/>
</svg>
